<svg width="202" height="202" viewBox="0 0 202 202" fill="none" xmlns="http://www.w3.org/2000/svg">
<rect x="20" y="20" width="161.981" height="161.981" rx="37" fill="url(#paint0_linear_10_3895)"/>
<g clip-path="url(#clip0_10_3895)">
<path d="M154.683 54.0906L154.717 48.1128L130.703 56.8193C121.989 51.0598 111.89 48.0264 101.358 48.0264C90.8267 48.0264 80.7284 51.0598 72.0137 56.8195L48 48.1128L48.0342 54.0906C48.0821 62.5256 51.0699 68.9248 55.3788 74.3297C50.5681 82.5007 48.0342 91.8002 48.0342 101.351V130.866L51.2097 131.643C71.4832 136.605 86.7521 143.325 99.2617 152.79L101.775 154.692L104.289 152.79C117.07 143.119 132.075 136.4 151.508 131.643L154.683 130.866V101.351C154.683 91.8004 152.149 82.5009 147.339 74.3299C151.647 68.9248 154.635 62.5258 154.683 54.0906ZM73.265 66.1357L75.0518 64.8457C82.7422 59.293 91.839 56.3581 101.358 56.3581C110.878 56.3581 119.975 59.293 127.665 64.8457L129.452 66.1357L145.488 60.3214C143.151 68.5865 136.36 74.2158 128.725 80.5448C121.527 86.5117 114.087 92.6819 109.38 101.827L101.358 115.579L93.3363 101.827C88.6298 92.6817 81.1891 86.5117 73.9911 80.5448C66.3568 74.216 59.566 68.5867 57.2289 60.3216L73.265 66.1357ZM113.068 103.876L113.023 103.85L113.07 103.874L113.068 103.876ZM121.117 99.134C122.076 99.9938 123.342 100.517 124.732 100.517C127.697 100.517 130.104 98.1341 130.145 95.1788C130.523 96.1001 130.729 97.0868 130.729 98.0906C130.729 102.568 126.933 106.35 122.44 106.35C120.62 106.35 118.843 105.672 117.406 104.498C118.484 102.595 119.738 100.816 121.117 99.134ZM72.5716 95.179C72.613 98.1343 75.0201 100.518 77.9853 100.518C79.3744 100.518 80.6411 99.994 81.5999 99.1342C82.9792 100.816 84.2326 102.595 85.3107 104.499C83.8741 105.672 82.0965 106.35 80.2768 106.35C75.784 106.35 71.9883 102.568 71.9883 98.0908C71.9883 97.0868 72.1941 96.1003 72.5716 95.179ZM89.6467 103.874L89.6937 103.85L89.6496 103.876L89.6467 103.874ZM146.351 124.354C128.51 129.025 114.198 135.427 101.772 144.3C89.5131 135.586 74.9349 129.183 56.3659 124.351V101.351C56.3659 94.1104 58.0906 87.0435 61.3822 80.686C63.6253 82.7633 65.9908 84.7347 68.3444 86.6862C65.3915 89.703 63.6564 93.7599 63.6564 98.0906C63.6564 102.487 65.399 106.645 68.5633 109.799C71.7221 112.948 75.8821 114.682 80.2768 114.682C83.5725 114.682 86.7844 113.629 89.4884 111.766L101.358 132.115L113.229 111.766C115.933 113.629 119.145 114.682 122.44 114.682C126.835 114.682 130.995 112.948 134.154 109.799C137.318 106.645 139.061 102.487 139.061 98.0906C139.061 93.7599 137.325 89.703 134.373 86.6862C136.726 84.7347 139.092 82.7633 141.335 80.686C144.626 87.0433 146.351 94.1104 146.351 101.351V124.354ZM80.9783 70.872C83.612 69.105 86.433 67.7019 89.3861 66.6829C93.4721 69.8349 97.4506 73.5192 101.358 77.7696C105.266 73.5192 109.245 69.8346 113.331 66.6829C116.284 67.7019 119.105 69.105 121.739 70.872C115.824 74.9073 110.134 80.1659 104.534 86.7587L101.358 90.4971L98.1832 86.7587C92.5833 80.1659 86.8934 74.9073 80.9783 70.872Z" fill="white"/>
</g>
<defs>
<linearGradient id="paint0_linear_10_3895" x1="100.991" y1="20" x2="100.991" y2="181.981" gradientUnits="userSpaceOnUse">
<stop stop-color="#68D6CA"/>
<stop offset="1" stop-color="#2E60F4"/>
</linearGradient>
<clipPath id="clip0_10_3895">
<rect width="106.717" height="106.717" fill="white" transform="translate(48 48)"/>
</clipPath>
</defs>
</svg>
