<svg width="36" height="36" viewBox="0 0 36 36" fill="none" xmlns="http://www.w3.org/2000/svg">
<path d="M29.415 20.468C27.8928 20.9286 12.4135 25.4075 12.4135 25.4075C12.4135 25.4075 8.12793 26.8419 4.95684 22.9747L8.47598 21.5122C9.0877 21.7196 9.65723 21.702 10.4131 21.4594L14.4139 20.468L8.41269 11.5805C8.41269 11.5805 7.19629 9.65045 11.4115 10.5926C11.4115 10.5926 19.0369 16.4321 20.4115 17.5044C20.4115 17.5044 21.1146 17.9051 22.4119 17.5044L28.4131 15.5286C28.4131 15.5286 32.4771 14.2876 33.4123 16.5165C34.3967 18.8544 30.9338 20.0075 29.415 20.468ZM4.28184 22.261C2.71387 20.5102 2.41504 19.4801 2.41504 19.4801C2.41504 19.4801 2.73848 17.3391 5.41387 19.4801C6.19434 20.1059 7.02402 20.5348 7.55137 20.8864L4.28184 22.261Z" fill="#FF647C"/>
</svg>
