<svg width="24" height="24" viewBox="0 0 24 24" fill="none" xmlns="http://www.w3.org/2000/svg">
<path d="M16.02 10.9133C17.841 10.9133 19.317 9.43734 19.317 7.61634C19.317 5.79634 17.841 4.31934 16.02 4.31934" stroke="#A9A9A9" stroke-width="1.5" stroke-linecap="round" stroke-linejoin="round"/>
<path d="M17.5361 14.4963C18.0801 14.5333 18.6201 14.6113 19.1531 14.7293C19.8921 14.8763 20.7821 15.1793 21.0981 15.8423C21.3001 16.2673 21.3001 16.7623 21.0981 17.1873C20.7831 17.8503 19.8921 18.1533 19.1531 18.3053" stroke="#A9A9A9" stroke-width="1.5" stroke-linecap="round" stroke-linejoin="round"/>
<path fill-rule="evenodd" clip-rule="evenodd" d="M9.59149 15.2063C13.2815 15.2063 16.4335 15.7653 16.4335 17.9983C16.4335 20.2323 13.3015 20.8103 9.59149 20.8103C5.90149 20.8103 2.75049 20.2523 2.75049 18.0183C2.75049 15.7843 5.88149 15.2063 9.59149 15.2063Z" stroke="#A9A9A9" stroke-width="1.5" stroke-linecap="round" stroke-linejoin="round"/>
<path fill-rule="evenodd" clip-rule="evenodd" d="M9.59152 12.0188C7.15752 12.0188 5.20752 10.0678 5.20752 7.63376C5.20752 5.20076 7.15752 3.24976 9.59152 3.24976C12.0255 3.24976 13.9765 5.20076 13.9765 7.63376C13.9765 10.0678 12.0255 12.0188 9.59152 12.0188Z" stroke="#A9A9A9" stroke-width="1.5" stroke-linecap="round" stroke-linejoin="round"/>
</svg>
